<?xml version="1.0" encoding="UTF-8"?>
<svg version="1.1" xmlns="http://www.w3.org/2000/svg" width="50" height="50">
<path d="M0 0 C0.71353638 -0.00524185 1.42707275 -0.0104837 2.16223145 -0.0158844 C3.66494449 -0.02228369 5.16770777 -0.02099475 6.67041016 -0.01245117 C8.96217371 -0.0039307 11.25145043 -0.03274256 13.54296875 -0.06445312 C15.00781176 -0.0660652 16.47265915 -0.06548749 17.9375 -0.0625 C18.61784302 -0.07373398 19.29818604 -0.08496796 19.99914551 -0.09654236 C24.75147475 -0.02733476 27.11424683 1.10860803 30.46875 4.43359375 C35.19727154 11.65004509 33.56206365 22.54529437 33.28125 30.80859375 C33.26344482 31.66453125 33.24563965 32.52046875 33.22729492 33.40234375 C32.97881962 38.83368388 32.10032023 42.14475579 28.46875 46.43359375 C21.2260489 51.26206115 10.89778789 49.60289153 2.46875 49.43359375 C1.3653125 49.41683594 0.261875 49.40007813 -0.875 49.3828125 C-7.11197752 49.08295781 -10.24658859 48.0565179 -14.53125 43.43359375 C-16.01256672 40.47096031 -15.71452691 37.44501447 -15.734375 34.1953125 C-15.74007507 33.47753128 -15.74577515 32.75975006 -15.75164795 32.0202179 C-15.76109952 30.49957758 -15.76763256 28.97891676 -15.77148438 27.45825195 C-15.78116925 25.14041986 -15.8121808 22.8234825 -15.84375 20.50585938 C-15.85028237 19.02734901 -15.85553192 17.5488323 -15.859375 16.0703125 C-15.8717218 15.38055832 -15.8840686 14.69080414 -15.89678955 13.98014832 C-15.8767215 9.60790489 -15.30024316 6.84881106 -12.53125 3.43359375 C-8.5741247 0.24653898 -4.91258138 -0.02119749 0 0 Z " fill="#111729" transform="translate(16.53125,0.56640625)"/>
<path d="M0 0 C1.93359375 -0.00580078 1.93359375 -0.00580078 3.90625 -0.01171875 C7.5 0.6875 7.5 0.6875 10.4453125 2.52734375 C13.5090294 7.23941023 13.07969079 11.44614011 12.875 16.9375 C12.85373047 18.46503906 12.85373047 18.46503906 12.83203125 20.0234375 C12.68239796 27.50510204 12.68239796 27.50510204 11.5 28.6875 C7.86100825 28.93906269 4.20916327 28.87272226 0.5625 28.875 C-0.46552734 28.88724609 -1.49355469 28.89949219 -2.55273438 28.91210938 C-4.02516602 28.91500977 -4.02516602 28.91500977 -5.52734375 28.91796875 C-6.88460571 28.92413208 -6.88460571 28.92413208 -8.26928711 28.93041992 C-10.5 28.6875 -10.5 28.6875 -12.5 26.6875 C-13.0024386 23.46068316 -12.9167114 20.1990009 -12.9375 16.9375 C-12.97037109 16.04289062 -13.00324219 15.14828125 -13.03710938 14.2265625 C-13.07159579 9.97532832 -12.97457425 6.62294649 -10.44140625 3.08984375 C-6.73431738 0.06214169 -4.7439466 -0.09013499 0 0 Z " fill="#13172A" transform="translate(24.5,10.3125)"/>
<path d="M0 0 C1.93359375 -0.00580078 1.93359375 -0.00580078 3.90625 -0.01171875 C7.5 0.6875 7.5 0.6875 10.4453125 2.52734375 C13.5090294 7.23941023 13.07969079 11.44614011 12.875 16.9375 C12.85373047 18.46503906 12.85373047 18.46503906 12.83203125 20.0234375 C12.68239796 27.50510204 12.68239796 27.50510204 11.5 28.6875 C7.86100825 28.93906269 4.20916327 28.87272226 0.5625 28.875 C-0.46552734 28.88724609 -1.49355469 28.89949219 -2.55273438 28.91210938 C-4.02516602 28.91500977 -4.02516602 28.91500977 -5.52734375 28.91796875 C-6.88460571 28.92413208 -6.88460571 28.92413208 -8.26928711 28.93041992 C-10.5 28.6875 -10.5 28.6875 -12.5 26.6875 C-13.0024386 23.46068316 -12.9167114 20.1990009 -12.9375 16.9375 C-12.97037109 16.04289062 -13.00324219 15.14828125 -13.03710938 14.2265625 C-13.07159579 9.97532832 -12.97457425 6.62294649 -10.44140625 3.08984375 C-6.73431738 0.06214169 -4.7439466 -0.09013499 0 0 Z M-9.5 8.6875 C-9.5 14.2975 -9.5 19.9075 -9.5 25.6875 C-2.9 25.6875 3.7 25.6875 10.5 25.6875 C10.5 20.0775 10.5 14.4675 10.5 8.6875 C3.9 8.6875 -2.7 8.6875 -9.5 8.6875 Z " fill="#DBC4DC" transform="translate(24.5,10.3125)"/>
<path d="M0 0 C3.3 0 6.6 0 10 0 C9.34 2.31 8.68 4.62 8 7 C10.49552484 6.21869929 10.49552484 6.21869929 13 5 C13.33 4.01 13.66 3.02 14 2 C14.66 2 15.32 2 16 2 C15.6875 4.875 15.6875 4.875 15 8 C12 10 12 10 9.0625 9.875 C5.63117696 8.89462199 4.26399153 7.69937452 2 5 C1.67 8.63 1.34 12.26 1 16 C3.64624284 15.85978195 6.29184578 15.71310224 8.9375 15.5625 C9.69224609 15.52318359 10.44699219 15.48386719 11.22460938 15.44335938 C14.91944187 15.55961976 14.91944187 15.55961976 18 14 C18.23527773 11.65012738 18.41386417 9.29443961 18.5625 6.9375 C18.64628906 5.64714844 18.73007812 4.35679688 18.81640625 3.02734375 C18.90728516 1.52880859 18.90728516 1.52880859 19 0 C19.33 0 19.66 0 20 0 C20 5.61 20 11.22 20 17 C13.4 17 6.8 17 0 17 C0 11.39 0 5.78 0 0 Z " fill="#1D162A" transform="translate(15,19)"/>
<path d="M0 0 C0.67740234 -0.020625 1.35480469 -0.04125 2.05273438 -0.0625 C5.22814081 -0.08733211 7.37416675 0.07433601 10.16796875 1.640625 C11.6875 3.25 11.6875 3.25 11.6875 5.25 C9.41676921 6.3853654 8.14466721 6.37892412 5.625 6.3828125 C4.82835937 6.38410156 4.03171875 6.38539062 3.2109375 6.38671875 C2.37820312 6.38285156 1.54546875 6.37898438 0.6875 6.375 C-0.56160156 6.38080078 -0.56160156 6.38080078 -1.8359375 6.38671875 C-2.63257813 6.38542969 -3.42921875 6.38414063 -4.25 6.3828125 C-4.98089844 6.38168457 -5.71179688 6.38055664 -6.46484375 6.37939453 C-8.3125 6.25 -8.3125 6.25 -10.3125 5.25 C-7.66002092 -0.23179009 -5.91418146 0.04425954 0 0 Z " fill="#9B879E" transform="translate(24.3125,10.75)"/>
<path d="M0 0 C0.33 0 0.66 0 1 0 C1.33 1.98 1.66 3.96 2 6 C2.33 6 2.66 6 3 6 C3 10.29 3 14.58 3 19 C9.27 19 15.54 19 22 19 C22 19.33 22 19.66 22 20 C18.52125243 20.19590444 15.04199096 20.38031592 11.5625 20.5625 C10.56927734 20.61857422 9.57605469 20.67464844 8.55273438 20.73242188 C7.60849609 20.78076172 6.66425781 20.82910156 5.69140625 20.87890625 C4.81685791 20.9260376 3.94230957 20.97316895 3.04125977 21.02172852 C1 21 1 21 0 20 C-0.08669432 18.5112814 -0.10703494 17.018555 -0.09765625 15.52734375 C-0.09443359 14.62822266 -0.09121094 13.72910156 -0.08789062 12.80273438 C-0.07951172 11.85720703 -0.07113281 10.91167969 -0.0625 9.9375 C-0.05798828 8.98810547 -0.05347656 8.03871094 -0.04882812 7.06054688 C-0.0370011 4.70696935 -0.02052025 2.35351523 0 0 Z " fill="#B8A3BA" transform="translate(12,17)"/>
<path d="M0 0 C0.66 0 1.32 0 2 0 C2.66 1.32 3.32 2.64 4 4 C5.65 3.67 7.3 3.34 9 3 C9.33 2.01 9.66 1.02 10 0 C10.66 0 11.32 0 12 0 C11.6875 2.875 11.6875 2.875 11 6 C8 8 8 8 4.9375 7.8125 C2 7 2 7 0 4 C0 2.68 0 1.36 0 0 Z " fill="#CEB7D0" transform="translate(19,21)"/>
<path d="M0 0 C0.33 0.99 0.66 1.98 1 3 C7.27 3 13.54 3 20 3 C20 3.33 20 3.66 20 4 C13.4 4 6.8 4 0 4 C-0.33 7.96 -0.66 11.92 -1 16 C-1.33 16 -1.66 16 -2 16 C-2 11.05 -2 6.1 -2 1 C-1.34 0.67 -0.68 0.34 0 0 Z " fill="#D8BED5" transform="translate(15,15)"/>
<path d="M0 0 C0 1.65 0 3.3 0 5 C-0.66 5 -1.32 5 -2 5 C-2 4.01 -2 3.02 -2 2 C-8.27 2 -14.54 2 -21 2 C-21 1.67 -21 1.34 -21 1 C-18.06255476 0.83231709 -15.12505096 0.66581142 -12.1875 0.5 C-11.35412109 0.45230469 -10.52074219 0.40460937 -9.66210938 0.35546875 C-8.85966797 0.31035156 -8.05722656 0.26523437 -7.23046875 0.21875 C-6.49207764 0.17685547 -5.75368652 0.13496094 -4.99291992 0.09179688 C-3.33009506 0.01520467 -1.6645879 0 0 0 Z " fill="#F3D1EA" transform="translate(37,16)"/>
<path d="M0 0 C1.485 0.99 1.485 0.99 3 2 C2.67 2.66 2.34 3.32 2 4 C2.66 4.33 3.32 4.66 4 5 C2.68 6.32 1.36 7.64 0 9 C0 6.03 0 3.06 0 0 Z " fill="#0D101E" transform="translate(1,9)"/>
</svg>
