<?xml version="1.0" encoding="UTF-8"?>
<svg version="1.1" xmlns="http://www.w3.org/2000/svg" width="50" height="50">
<path d="M0 0 C4.38884869 4.99420713 3.0737981 12.33789235 3.10766602 18.63110352 C3.11918126 20.12176001 3.1396263 21.61237541 3.16918945 23.1027832 C3.21202161 25.26281595 3.22805528 27.4216257 3.23828125 29.58203125 C3.25286377 30.87214111 3.26744629 32.16225098 3.2824707 33.49145508 C2.72791691 37.70519968 1.51355598 39.81374653 -1.1875 43.0625 C-6.33492667 46.57239331 -12.62174283 46.4675478 -18.625 46.3125 C-19.41970703 46.30734375 -20.21441406 46.3021875 -21.03320312 46.296875 C-37.07464904 46.088036 -37.07464904 46.088036 -43.1875 42.0625 C-45.69945066 38.47438359 -45.51016132 34.62972809 -45.5234375 30.41015625 C-45.5300943 29.67300888 -45.5367511 28.93586151 -45.54360962 28.17637634 C-45.55371333 26.6206206 -45.55842734 25.06482172 -45.55810547 23.5090332 C-45.56247944 21.13615183 -45.59882091 18.76513075 -45.63671875 16.39257812 C-45.64258742 14.8776105 -45.64655648 13.36263408 -45.6484375 11.84765625 C-45.66280853 11.1423024 -45.67717957 10.43694855 -45.69198608 9.71022034 C-45.64744582 4.87913249 -44.60084158 2.45762019 -41.1875 -0.9375 C-36.63418453 -3.65439542 -31.29588827 -3.47052368 -26.125 -3.6875 C-25.18849609 -3.72770264 -24.25199219 -3.76790527 -23.28710938 -3.80932617 C-15.16124729 -4.07714221 -7.13462694 -4.33673402 0 0 Z M-31.66796875 9.95703125 C-33.86054665 14.43800666 -33.65713137 18.39603395 -33.5 23.3125 C-33.49033203 24.23546875 -33.48066406 25.1584375 -33.47070312 26.109375 C-33.77370357 30.4193723 -33.77370357 30.4193723 -32.1875 34.0625 C-30.56492456 34.1616657 -28.93810169 34.19329777 -27.3125 34.1953125 C-26.32765625 34.19660156 -25.3428125 34.19789062 -24.328125 34.19921875 C-22.77351563 34.19341797 -22.77351563 34.19341797 -21.1875 34.1875 C-20.15109375 34.19136719 -19.1146875 34.19523437 -18.046875 34.19921875 C-17.06203125 34.19792969 -16.0771875 34.19664063 -15.0625 34.1953125 C-14.15242188 34.19418457 -13.24234375 34.19305664 -12.3046875 34.19189453 C-10.2022152 34.29810009 -10.2022152 34.29810009 -9.1875 33.0625 C-8.88065263 29.63385097 -8.90911131 26.19069372 -8.875 22.75 C-8.83149414 21.30463867 -8.83149414 21.30463867 -8.78710938 19.83007812 C-8.71011296 14.38169608 -8.71011296 14.38169608 -10.70703125 9.4296875 C-14.16707741 7.52257545 -17.33615369 7.44069485 -21.1875 7.5 C-22.25484375 7.46422852 -22.25484375 7.46422852 -23.34375 7.42773438 C-26.85700655 7.43756625 -28.85915768 7.81171886 -31.66796875 9.95703125 Z " fill="#D82B79" transform="translate(45.1875,3.9375)"/>
<path d="M0 0 C6.625 0.75 6.625 0.75 10 3 C10.99 2.67 11.98 2.34 13 2 C16.07176839 6.60765258 15.63145684 11.3808466 15.875 16.8125 C15.98328125 18.43381836 15.98328125 18.43381836 16.09375 20.08789062 C16.31377877 24.80403355 16.34353884 28.17712555 14.5078125 32.57421875 C9.43219557 37.48381083 3.86931755 38.35740234 -3.01757812 38.3125 C-3.81615234 38.291875 -4.61472656 38.27125 -5.4375 38.25 C-6.23220703 38.24484375 -7.02691406 38.2396875 -7.84570312 38.234375 C-23.56868957 38.02968193 -23.56868957 38.02968193 -29 34 C-28.01 33.505 -28.01 33.505 -27 33 C-26.63451555 31.67511887 -26.3062434 30.33981486 -26 29 C-25.36345658 27.6520257 -24.70394612 26.31403276 -24 25 C-23.34 25 -22.68 25 -22 25 C-21.67 18.4 -21.34 11.8 -21 5 C-20.67 5 -20.34 5 -20 5 C-19.67 11.6 -19.34 18.2 -19 25 C-11.74 25 -4.48 25 3 25 C3.061875 21.6175 3.12375 18.235 3.1875 14.75 C3.21481201 13.69006836 3.24212402 12.63013672 3.27026367 11.53808594 C3.28150269 10.27399902 3.28150269 10.27399902 3.29296875 8.984375 C3.31653442 7.69611816 3.31653442 7.69611816 3.34057617 6.38183594 C2.93095949 3.51716184 1.886136 2.14936836 0 0 Z " fill="#DA3681" transform="translate(32,12)"/>
<path d="M0 0 C1.18613892 0.00785522 1.18613892 0.00785522 2.39624023 0.01586914 C3.67724609 0.02070313 3.67724609 0.02070313 4.98413086 0.02563477 C5.88196289 0.03401367 6.77979492 0.04239258 7.70483398 0.05102539 C8.6065332 0.05553711 9.50823242 0.06004883 10.43725586 0.06469727 C12.67234712 0.07652315 14.90730835 0.09300319 17.14233398 0.11352539 C18.75815388 4.3734142 19.39216788 7.87565072 19.32983398 12.42602539 C19.32338867 13.4740332 19.31694336 14.52204102 19.31030273 15.60180664 C19.14233398 18.11352539 19.14233398 18.11352539 18.14233398 19.11352539 C16.66580734 19.21233336 15.18466163 19.24431785 13.70483398 19.24633789 C12.36291992 19.24827148 12.36291992 19.24827148 10.99389648 19.25024414 C10.05288086 19.24637695 9.11186523 19.24250977 8.14233398 19.23852539 C6.73081055 19.24432617 6.73081055 19.24432617 5.29077148 19.25024414 C4.39616211 19.24895508 3.50155273 19.24766602 2.57983398 19.24633789 C1.75354492 19.24520996 0.92725586 19.24408203 0.07592773 19.24291992 C-1.85766602 19.11352539 -1.85766602 19.11352539 -2.85766602 18.11352539 C-2.95753576 15.27017491 -2.99644483 12.45655376 -2.98266602 9.61352539 C-2.9865332 8.8155957 -2.99040039 8.01766602 -2.99438477 7.19555664 C-2.98247765 0.1822647 -2.98247765 0.1822647 0 0 Z M2.14233398 4.11352539 C2.80233398 5.76352539 3.46233398 7.41352539 4.14233398 9.11352539 C4.80233398 8.78352539 5.46233398 8.45352539 6.14233398 8.11352539 C4.82233398 6.79352539 3.50233398 5.47352539 2.14233398 4.11352539 Z M12.14233398 5.11352539 C13.14233398 7.11352539 13.14233398 7.11352539 13.14233398 7.11352539 Z M11.14233398 7.11352539 C10.81233398 7.77352539 10.48233398 8.43352539 10.14233398 9.11352539 C10.80233398 9.11352539 11.46233398 9.11352539 12.14233398 9.11352539 C11.81233398 8.45352539 11.48233398 7.79352539 11.14233398 7.11352539 Z M6.14233398 9.11352539 C10.14233398 10.11352539 10.14233398 10.11352539 10.14233398 10.11352539 Z " fill="#E170A4" transform="translate(15.857666015625,17.886474609375)"/>
<path d="M0 0 C3.22235065 3.66681281 2.93063792 7.00891533 2.91015625 11.69921875 C2.90693359 12.99794922 2.90371094 14.29667969 2.90039062 15.63476562 C2.89203531 17.00651108 2.88357037 18.37825587 2.875 19.75 C2.86998335 21.13346195 2.86542073 22.51692563 2.86132812 23.90039062 C2.84952529 27.28780395 2.83306019 30.67513033 2.8125 34.0625 C2.4825 34.0625 2.1525 34.0625 1.8125 34.0625 C1.782771 33.17727661 1.782771 33.17727661 1.75244141 32.27416992 C1.65715341 29.59899904 1.54749061 26.92460502 1.4375 24.25 C1.4065625 23.32123047 1.375625 22.39246094 1.34375 21.43554688 C1.28574219 20.0965332 1.28574219 20.0965332 1.2265625 18.73046875 C1.1951416 17.90828857 1.1637207 17.0861084 1.13134766 16.23901367 C0.92876378 13.77297063 0.92876378 13.77297063 -1.1875 11.0625 C-2.1775 11.3925 -3.1675 11.7225 -4.1875 12.0625 C-4.1875 11.4025 -4.1875 10.7425 -4.1875 10.0625 C-12.46700633 7.84477509 -20.66669963 7.45978885 -29.1875 7.0625 C-28.8575 6.4025 -28.5275 5.7425 -28.1875 5.0625 C-25.8775 5.0625 -23.5675 5.0625 -21.1875 5.0625 C-21.1875 4.0725 -21.1875 3.0825 -21.1875 2.0625 C-17.55326791 -0.26340854 -14.41661669 -0.10015833 -10.1875 0.0625 C-14.02296041 -0.85838257 -17.42851261 -0.99085412 -21.36328125 -0.81640625 C-22.52021484 -0.76806641 -23.67714844 -0.71972656 -24.86914062 -0.66992188 C-26.06732422 -0.61384766 -27.26550781 -0.55777344 -28.5 -0.5 C-29.71751953 -0.44779297 -30.93503906 -0.39558594 -32.18945312 -0.34179688 C-35.18907979 -0.21240121 -38.18835006 -0.07744552 -41.1875 0.0625 C-33.47500314 -7.64999686 -8.52905512 -5.18432762 0 0 Z " fill="#D32976" transform="translate(45.1875,3.9375)"/>
<path d="M0 0 C-2 2 -2 2 -4.875 2.0625 C-6.421875 2.0315625 -6.421875 2.0315625 -8 2 C-10.26566343 2.43941523 -10.26566343 2.43941523 -12 3 C-12 3.99 -12 4.98 -12 6 C-13.7015625 6.2165625 -13.7015625 6.2165625 -15.4375 6.4375 C-18.80777201 6.61171478 -18.80777201 6.61171478 -20 8 C-21.99958364 8.04080783 -24.00045254 8.04254356 -26 8 C-25.835 7.195625 -25.67 6.39125 -25.5 5.5625 C-24.96808161 3.2715557 -24.96808161 3.2715557 -25 2 C-25.66 2 -26.32 2 -27 2 C-27 1.34 -27 0.68 -27 0 C-23.62554272 -0.19825948 -20.25043278 -0.38167324 -16.875 -0.5625 C-15.44800781 -0.64661133 -15.44800781 -0.64661133 -13.9921875 -0.73242188 C-9.16209924 -0.98398897 -4.75809383 -1.08138496 0 0 Z " fill="#DB2777" transform="translate(36,3)"/>
<path d="M0 0 C2 3 2 3 2 8 C-3.94 8 -9.88 8 -16 8 C-16 6.02 -16 4.04 -16 2 C-12.13436585 1.28998556 -9.09870703 0.98543667 -5.1875 1.5625 C-4.135625 1.706875 -3.08375 1.85125 -2 2 C-1.34 1.34 -0.68 0.68 0 0 Z " fill="#D82875" transform="translate(31,27)"/>
<path d="M0 0 C1.13917218 3.41751653 1.11338481 6.03487937 1.09765625 9.63671875 C1.09443359 10.93544922 1.09121094 12.23417969 1.08789062 13.57226562 C1.07953531 14.94401108 1.07107037 16.31575587 1.0625 17.6875 C1.05748335 19.07096195 1.05292073 20.45442563 1.04882812 21.83789062 C1.03702529 25.22530395 1.02056019 28.61263033 1 32 C0.67 32 0.34 32 0 32 C-0.02505615 31.41508789 -0.0501123 30.83017578 -0.07592773 30.22753906 C-0.19222962 27.56815529 -0.31480067 24.90909597 -0.4375 22.25 C-0.47681641 21.32960938 -0.51613281 20.40921875 -0.55664062 19.4609375 C-0.59853516 18.57148438 -0.64042969 17.68203125 -0.68359375 16.765625 C-0.72025146 15.94868164 -0.75690918 15.13173828 -0.79467773 14.29003906 C-0.99134275 12.0965577 -1.40300594 10.11603587 -2 8 C-2.99 8 -3.98 8 -5 8 C-5 7.34 -5 6.68 -5 6 C-5.61875 5.87625 -6.2375 5.7525 -6.875 5.625 C-9 5 -9 5 -11 3 C-10.34 3 -9.68 3 -9 3 C-9.33 2.01 -9.66 1.02 -10 0 C-6.30458414 -0.95024979 -3.69541586 -0.95024979 0 0 Z " fill="#D2286E" transform="translate(47,6)"/>
<path d="M0 0 C6.27 0 12.54 0 19 0 C19 0.99 19 1.98 19 3 C17.824375 3.0928125 17.824375 3.0928125 16.625 3.1875 C15.75875 3.455625 14.8925 3.72375 14 4 C12.62533375 6.47636012 12.62533375 6.47636012 12 9 C10.35 8.67 8.7 8.34 7 8 C6.67 6.68 6.34 5.36 6 4 C3.03 3.505 3.03 3.505 0 3 C0 2.01 0 1.02 0 0 Z " fill="#D471A0" transform="translate(14,18)"/>
<path d="M0 0 C-0.33 0.66 -0.66 1.32 -1 2 C-12.22 2.33 -23.44 2.66 -35 3 C-30.92488997 -1.07511003 -25.30736233 -0.37059185 -19.875 -0.625 C-18.96234375 -0.6765625 -18.0496875 -0.728125 -17.109375 -0.78125 C-11.26890974 -1.06412154 -5.79415755 -0.79388253 0 0 Z " fill="#C23977" transform="translate(39,1)"/>
<path d="M0 0 C1.26714844 -0.02578125 2.53429688 -0.0515625 3.83984375 -0.078125 C5.43505859 0.08429687 5.43505859 0.08429687 7.0625 0.25 C7.7225 1.24 8.3825 2.23 9.0625 3.25 C8.0625 4.25 8.0625 4.25 4.46484375 4.34765625 C2.97653133 4.3409822 1.48823568 4.32902183 0 4.3125 C-0.75861328 4.30798828 -1.51722656 4.30347656 -2.29882812 4.29882812 C-4.17841871 4.2870068 -6.05796899 4.26907078 -7.9375 4.25 C-7.9375 -1.28821501 -4.84023776 0.05896736 0 0 Z " fill="#DF85AE" transform="translate(23.9375,12.75)"/>
<path d="M0 0 C6.93 0 13.86 0 21 0 C21 0.33 21 0.66 21 1 C19.89140625 1.02578125 18.7828125 1.0515625 17.640625 1.078125 C16.17704453 1.13441656 14.71350438 1.19176367 13.25 1.25 C12.15558594 1.27126953 12.15558594 1.27126953 11.0390625 1.29296875 C7.37424151 1.45955152 5.36948928 1.69935965 2.484375 4.046875 C1.99453125 4.69140625 1.5046875 5.3359375 1 6 C0.67 4.02 0.34 2.04 0 0 Z " fill="#E984B8" transform="translate(11,11)"/>
<path d="M0 0 C0.33 0.66 0.66 1.32 1 2 C3.02463255 2.65213292 3.02463255 2.65213292 5 3 C4.40844669 4.31823302 3.80128537 5.62947051 3.1875 6.9375 C2.85105469 7.66839844 2.51460938 8.39929688 2.16796875 9.15234375 C1 11 1 11 -2 12 C-1.47916667 10.046875 -0.95833333 8.09375 -0.4375 6.140625 C0.13349349 3.71098139 0.13349349 3.71098139 0 0 Z " fill="#E12477" transform="translate(4,34)"/>
<path d="M0 0 C0.66 0 1.32 0 2 0 C2.4125 0.639375 2.825 1.27875 3.25 1.9375 C5.59697894 4.70358232 7.48008781 4.68711892 11 5 C11 5.33 11 5.66 11 6 C5.60550707 6.27429625 2.48074195 6.36055646 -2 3 C-1.34 2.67 -0.68 2.34 0 2 C0 1.34 0 0.68 0 0 Z " fill="#CB367E" transform="translate(5,43)"/>
<path d="M0 0 C1.32 0 2.64 0 4 0 C3.67 1.65 3.34 3.3 3 5 C1.35 5 -0.3 5 -2 5 C-1.34 3.35 -0.68 1.7 0 0 Z " fill="#D12B73" transform="translate(24,20)"/>
<path d="M0 0 C2.9375 0.375 2.9375 0.375 6 1 C6.33 1.66 6.66 2.32 7 3 C4.36 3.33 1.72 3.66 -1 4 C-0.67 2.68 -0.34 1.36 0 0 Z " fill="#CC2B6C" transform="translate(38,2)"/>
<path d="M0 0 C1.32 0.33 2.64 0.66 4 1 C3.34 2.32 2.68 3.64 2 5 C3.65 5 5.3 5 7 5 C6.67 5.66 6.34 6.32 6 7 C4.35 6.67 2.7 6.34 1 6 C0.67 4.02 0.34 2.04 0 0 Z " fill="#D96198" transform="translate(20,20)"/>
<path d="M0 0 C0.66 0 1.32 0 2 0 C3.625 2 3.625 2 5 4 C3.68 4.99 2.36 5.98 1 7 C0.67 4.69 0.34 2.38 0 0 Z " fill="#DC5D98" transform="translate(17,24)"/>
<path d="M0 0 C2.31 0.33 4.62 0.66 7 1 C6.01 2.32 5.02 3.64 4 5 C2.68 3.35 1.36 1.7 0 0 Z " fill="#D8528C" transform="translate(32,12)"/>
</svg>
